# AST/ASF file generated using VICON BodyLanguage
# -----------------------------------------------
:version 1.10
:name VICON
:units
  mass 1.0
  length 0.45
  angle deg
:documentation
   .ast/.asf automatically generated from VICON data using
   VICON BodyBuilder and BodyLanguage model FoxedUp or BRILLIANT.MOD
:root
   order TX TY TZ RX RY RZ
   axis XYZ
   position 0 0 0  
   orientation 0 0 0 
:bonedata
  begin
     id 1 
     name lhipjoint
     direction 0.589753 -0.68606 0.426044 
     length 2.54082 
     axis 0 0 0  XYZ
  end
  begin
     id 2 
     name lfemur
     direction 0.34202 -0.939693 0  
     length 7.04539  
     axis 0 0 20  XYZ
    dof rx ry rz
    limits (-160.0 20.0)
           (-70.0 70.0)
           (-60.0 70.0)
  end
  begin
     id 3 
     name ltibia
     direction 0.34202 -0.939693 0   
     length 7.83772   
     axis 0 0 20   XYZ
    dof rx
    limits (-10.0 170.0)
  end
  begin
     id 4 
     name lfoot
     direction 0.0596604 -0.163915 0.984669   
     length 2.39542   
     axis -90 7.62852e-016 20   XYZ
    dof rx rz
    limits (-45.0 90.0)
           (-70.0 20.0)
  end
  begin
     id 5 
     name ltoes
     direction 1.53514e-011 -4.21954e-011 1   
     length 1.2047   
     axis -90 7.62852e-016 20   XYZ
    dof rx
    limits (-90.0 20.0)
  end
  begin
     id 6 
     name rhipjoint
     direction -0.580585 -0.69168 0.429534   
     length 2.52018  
     axis 0 0 0  XYZ 
  end
  begin
     id 7 
     name rfemur
     direction -0.34202 -0.939693 0   
     length 7.0101   
     axis 0 0 -20   XYZ
    dof rx ry rz
    limits (-160.0 20.0)
           (-70.0 70.0)
           (-70.0 60.0)
  end
  begin
     id 8 
     name rtibia
     direction -0.34202 -0.939693 0   
     length 7.70628   
     axis 0 0 -20   XYZ
    dof rx
    limits (-10.0 170.0)
 end
 begin
     id 9 
     name rfoot
     direction -0.0696237 -0.19129 0.979061   
     length 2.52466  
     axis -90 -7.62852e-016 -20   XYZ
    dof rx rz
    limits (-45.0 90.0)
           (-20.0 70.0)
  end
  begin
     id 10 
     name rtoes
     direction -1.53519e-011 -4.21793e-011 1   
     length 1.266   
     axis -90 -7.62852e-016 -20   XYZ
    dof rx
    limits (-90.0 20.0)
  end
  begin
     id 11 
     name lowerback
     direction 0.00381965 0.995707 -0.0924856   
     length 2.20825   
     axis 0 0 0   XYZ
    dof rx ry rz
    limits (-20.0 45.0)
           (-30.0 30.0)
           (-30.0 30.0)
  end
  begin
     id 12 
     name upperback
     direction -0.0139043 0.999634 -0.0231929   
     length 2.21517   
     axis 0 0 0   XYZ
    dof rx ry rz
    limits (-20.0 45.0)
           (-30.0 30.0)
           (-30.0 30.0)
  end
  begin
     id 13 
     name thorax
     direction -0.0143933 0.999691 0.0202892   
     length 2.22911   
     axis 0 0 0   XYZ
    dof rx ry rz
    limits (-20.0 45.0)
           (-30.0 30.0)
           (-30.0 30.0)
  end
  begin
     id 14 
     name lowerneck
     direction -0.0251153 0.981819 0.188153   
     length 1.61782   
     axis 0 0 0   XYZ
    dof rx ry rz
    limits (-20.0 45.0)
           (-30.0 30.0)
           (-30.0 30.0)
  end
  begin
     id 15 
     name upperneck
     direction 0.0563891 0.969357 -0.239095   
     length 1.64526   
     axis 0 0 0   XYZ
    dof rx ry rz
    limits (-20.0 45.0)
           (-30.0 30.0)
           (-30.0 30.0)
  end
  begin
     id 16
     name head
     direction 0.0208328 0.99459 -0.101773  
     length 1.67436  
     axis 0 0 0   XYZ
    dof rx ry rz
    limits (-20.0 45.0)
           (-30.0 30.0)
           (-30.0 30.0)
  end
  begin
     id 17 
     name lclavicle
     direction 0.917689 0.397224 0.00772059  
     length 3.31102  
     axis 0 0 0   XYZ
    dof ry rz
    limits (-20.0 10.0)
           (0.0 20.0)
  end
  begin
     id 18 
     name lhumerus
     direction 1 -4.4896e-011 2.32308e-027   
     length 5.25537   
     axis 180 -30 -90   XYZ
    dof rx ry rz
    limits (-60.0 90.0)
           (-90.0 90.0)
           (-90.0 90.0)
  end
  begin
     id 19
     name lradius
     direction 1 -4.49005e-011 -2.04271e-027   
     length 3.38855   
     axis 180 -30 -90   XYZ
    dof rx
    limits (-10.0 170.0)
  end
  begin
     id 20
     name lwrist
     direction 1 -4.48892e-011 2.56952e-028   
     length 1.69428   
     axis -5.12785e-016 90 90   XYZ
    dof ry
    limits (-180.0 0.0)
 end
  begin
     id 21 
     name lhand
     direction 1 -4.48966e-011 5.13905e-028   
     length 0.614516   
     axis -3.27915e-016 90 90   XYZ
    dof rx rz
    limits (-90.0 90.0)
           (-45.0 45.0)
  end
  begin
     id 22 
     name lfingers
     direction 1 -4.48979e-011 1.02781e-027   
     length 0.495439   
     axis -6.5583e-016 90 90   XYZ
    dof rx
    limits (0.0 90.0)
  end
  begin
     id 23
     name lthumb
     direction 0.707107 -6.35001e-011 0.707107   
     length 0.711354   
     axis -90 45 2.85299e-015   XYZ
    dof rx rz
    limits (-45.0 45.0)
           (-45.0 45.0)
  end
  begin
     id 24 
     name rclavicle
     direction -0.938556 0.342765 -0.0403177   
     length 3.27019  
     axis 0 0 0   XYZ 
    dof ry rz
    limits (-10.0 20.0)
           (-20.0 0.0)
  end
  begin
     id 25 
     name rhumerus
     direction -1 -4.48966e-011 2.52291e-027  
     length 5.38183   
     axis 180 30 90   XYZ
    dof rx ry rz
    limits (-90.0 60.0)
           (-90.0 90.0)
           (-90.0 90.0)
  end
  begin
     id 26 
     name rradius
     direction -1 -4.4896e-011 1.5797e-027   
     length 3.16988   
     axis 180 30 90   XYZ
    dof rx
    limits (-10.0 170.0)
  end
  begin
     id 27 
     name rwrist
     direction -1 -4.48947e-011 2.56952e-028   
     length 1.58494   
     axis -5.12785e-016 -90 -90   XYZ
    dof ry
    limits (-180.0 0.0)
  end
  begin
     id 28
     name rhand
     direction -1 -4.49098e-011 5.13905e-028   
     length 0.637679   
     axis -3.27915e-016 -90 -90   XYZ
    dof rx rz
    limits (-90.0 90.0)
           (-45.0 45.0)
  end
  begin
     id 29
     name rfingers
     direction -1 -4.49026e-011 1.02781e-027   
     length 0.514113   
     axis -6.5583e-016 -90 -90   XYZ
    dof rx
    limits (0.0 90.0)
  end
  begin
     id 30
     name rthumb
     direction -0.707107 -6.3491e-011 0.707107   
     length 0.738167   
     axis -90 -45 -2.85299e-015   XYZ
    dof rx rz
    limits (-45.0 45.0)
           (-45.0 45.0)
  end
:hierarchy
  begin
    root lhipjoint rhipjoint lowerback
    lhipjoint lfemur
    lfemur ltibia
    ltibia lfoot
    lfoot ltoes
    rhipjoint rfemur
    rfemur rtibia
    rtibia rfoot
    rfoot rtoes
    lowerback upperback
    upperback thorax
    thorax lowerneck lclavicle rclavicle
    lowerneck upperneck
    upperneck head
    lclavicle lhumerus
    lhumerus lradius
    lradius lwrist
    lwrist lhand lthumb
    lhand lfingers
    rclavicle rhumerus
    rhumerus rradius
    rradius rwrist
    rwrist rhand rthumb
    rhand rfingers
  end

#!OML:ASF H:\Swim\Project 1\Capture day 1\Session 1\swimmer.ASF
:FULLY-SPECIFIED
:DEGREES
4009
root 4.34226 12.058 7.46885 84.8734 -0.331799 -3.33394
lowerback 8.94411 -2.77389 4.05011
upperback 3.56905 -3.44806 -5.99991
thorax -1.89952 -1.66797 -8.24308
lowerneck -15.156 -5.64395 -15.8342
upperneck 10.2014 -6.94122 18.6631
head 6.87808 -2.63314 8.09417
rclavicle 1.43125e-014 2.98177e-014
rhumerus 38.4533 1.56995 23.9829
rradius 28.87
rwrist -37.6656
rhand 7.54749 -8.55307
rfingers 7.12502
rthumb 32.7967 -35.596
lclavicle 1.43125e-014 2.98177e-014
lhumerus 42.4984 15.4486 -26.1214
lradius 25.024
lwrist 1.94185
lhand 12.467 -341.795
lfingers 7.12502
lthumb 37.4622 -675.852
rfemur -12.226 14.8369 2.89229
rtibia 30.2137
rfoot -25.3528 -24.838
rtoes -3.68071
lfemur -13.0392 -2.50782 -6.0728
ltibia 28.9245
lfoot -2.6646 16.8121
ltoes 15.0181
4010
root 4.34189 12.051 7.49441 85.069 -0.303931 -3.3409
lowerback 8.60938 -2.71821 3.9909
upperback 3.56259 -3.3821 -5.90317
thorax -1.70112 -1.62976 -8.1226
lowerneck -15.128 -5.63398 -15.5368
upperneck 9.93274 -6.86739 18.0177
head 6.73359 -2.63428 7.80973
rclavicle -3.49861e-014 -9.93923e-016
rhumerus 38.2772 2.45974 23.971
rradius 28.8583
rwrist -37.1206
rhand 7.67496 -8.26559
rfingers 7.12502
rthumb 32.9179 -35.2831
lclavicle -3.49861e-014 -9.93923e-016
lhumerus 42.0488 14.7205 -25.6297
lradius 25.0288
lwrist 1.74505
lhand 13.1256 -342.459
lfingers 7.12502
lthumb 38.0844 -676.683
rfemur -12.9573 13.7359 3.28802
rtibia 30.7226
rfoot -24.6253 -24.1812
rtoes -4.58922
lfemur -13.7732 -1.90199 -6.37579
ltibia 29.8559
lfoot -2.49257 16.1898
ltoes 14.5296
4011
root 4.34176 12.0446 7.51933 85.2489 -0.282176 -3.35343
lowerback 8.28442 -2.66415 3.9313
upperback 3.54485 -3.31855 -5.80821
thorax -1.52063 -1.59385 -8.00293
lowerneck -15.1164 -5.6226 -15.2631
upperneck 9.66826 -6.79156 17.4
head 6.59644 -2.63272 7.54341
rclavicle -4.29375e-014 -1.19271e-014
rhumerus 38.1393 3.24833 23.8593
rradius 28.8223
rwrist -36.168
rhand 7.83173 -7.84867
rfingers 7.12502
rthumb 33.067 -34.8347
lclavicle -4.29375e-014 -1.19271e-014
lhumerus 41.6333 14.1093 -24.9832
lradius 25.0662
lwrist 1.50685
lhand 13.8912 -343.17
lfingers 7.12502
lthumb 38.8069 -677.595
rfemur -13.6599 12.6238 3.67297
rtibia 31.2338
rfoot -23.9544 -23.5757
rtoes -5.36588
lfemur -14.4844 -1.36862 -6.65732
ltibia 30.7897
lfoot -2.30298 15.6023
ltoes 14.063
4012
root 4.34171 12.0388 7.54326 85.4104 -0.269937 -3.36926
lowerback 7.97378 -2.61065 3.86556
upperback 3.51821 -3.25631 -5.71849
thorax -1.35777 -1.55959 -7.88447
lowerneck -15.1469 -5.61339 -15.0521
upperneck 9.4491 -6.72332 16.8937
head 6.49053 -2.62727 7.33032
rclavicle 3.02153e-014 9.08446e-014
rhumerus 38.0214 3.9438 23.6564
rradius 28.7793
rwrist -34.8401
rhand 8.02841 -7.28224
rfingers 7.12502
rthumb 33.254 -34.2285
lclavicle 3.02153e-014 9.08446e-014
lhumerus 41.2232 13.5509 -24.2819
lradius 25.1486
lwrist 1.28631
lhand 14.6627 -343.877
lfingers 7.12502
lthumb 39.534 -678.512
rfemur -14.3375 11.522 4.04496
rtibia 31.7634
rfoot -23.3602 -23.0284
rtoes -5.97382
lfemur -15.1761 -0.90569 -6.92144
ltibia 31.7305
lfoot -2.05632 15.0297
ltoes 13.8434
4013
root 4.34161 12.0337 7.56613 85.5499 -0.269838 -3.38271
lowerback 7.68485 -2.54899 3.77674
upperback 3.4812 -3.18475 -5.63009
thorax -1.21536 -1.52188 -7.7539
lowerneck -15.3367 -5.61265 -15.0799
upperneck 9.44926 -6.68652 16.8539
head 6.51609 -2.60504 7.32456
rclavicle 7.95139e-015 -1.82882e-014
rhumerus 37.8911 4.58279 23.4028
rradius 28.7547
rwrist -33.2276
rhand 8.24467 -6.5662
rfingers 7.12502
rthumb 33.4596 -33.4683
lclavicle 7.95139e-015 -1.82882e-014
lhumerus 40.8274 12.964 -23.6017
lradius 25.2729
lwrist 1.10042
lhand 15.3363 -344.555
lfingers 7.12502
lthumb 40.1681 -679.379
rfemur -14.9942 10.4045 4.39967
rtibia 32.3252
rfoot -22.7722 -22.4967
rtoes -6.52841
lfemur -15.8527 -0.50598 -7.17407
ltibia 32.685
lfoot -1.79414 14.4794
ltoes 13.6466
4014
root 4.34129 12.0291 7.58765 85.6639 -0.284207 -3.38965
lowerback 7.42407 -2.47738 3.65761
upperback 3.43445 -3.10169 -5.54353
thorax -1.09577 -1.47971 -7.60751
lowerneck -15.6952 -5.62411 -15.4996
upperneck 9.68521 -6.68634 17.5164
head 6.69697 -2.55708 7.63729
rclavicle 4.13472e-014 3.69739e-014
rhumerus 37.7341 5.20035 23.1359
rradius 28.7676
rwrist -31.4722
rhand 8.46868 -5.71814
rfingers 7.12502
rthumb 33.6725 -32.574
lclavicle 4.13472e-014 3.69739e-014
lhumerus 40.4484 12.3077 -22.9862
lradius 25.4359
lwrist 0.935981
lhand 15.8375 -345.19
lfingers 7.12502
lthumb 40.6394 -680.16
rfemur -15.6307 9.28621 4.73371
rtibia 32.9285
rfoot -22.1769 -21.9603
rtoes -7.08762
lfemur -16.5193 -0.153451 -7.42138
ltibia 33.6623
lfoot -1.52285 13.9399
ltoes 13.4543
4015
root 4.3407 12.0248 7.60764 85.7571 -0.305524 -3.38887
lowerback 7.18491 -2.39859 3.5199
upperback 3.37947 -3.00985 -5.4579
thorax -0.994971 -1.43418 -7.45105
lowerneck -16.165 -5.64771 -16.2623
upperneck 10.0798 -6.71911 18.7802
head 6.99564 -2.4889 8.23573
rclavicle 1.59028e-014 7.0171e-014
rhumerus 37.5472 5.82916 22.8972
rradius 28.8413
rwrist -29.7542
rhand 8.67454 -4.79197
rfingers 7.12502
rthumb 33.8681 -31.6049
lclavicle 1.59028e-014 7.0171e-014
lhumerus 40.0786 11.5632 -22.4588
lradius 25.6367
lwrist 0.798685
lhand 16.1423 -345.786
lfingers 7.12502
lthumb 40.9258 -680.846
rfemur -16.2555 8.18952 5.05255
rtibia 33.5783
rfoot -21.5438 -21.3902
rtoes -7.58932
lfemur -17.1893 0.179481 -7.65904
ltibia 34.672
lfoot -1.24513 13.3937
ltoes 13.3478
